<svg width="160" height="70" viewBox="0 0 160 70" fill="none" xmlns="http://www.w3.org/2000/svg">
<path d="M40.1013 9.99976H44.4407L48.206 19.6411H48.2904L52.0726 9.99976H56.3107V23.761H53.3052V14.1535H53.2208L49.3711 23.761H47.0241L43.1743 14.221H43.0899V23.761H40.1013V9.99976Z" fill="white"/>
<path d="M57.442 14.0523H60.7177L62.9296 21.0426H63.014L65.209 14.0523H68.282L64.3985 25.1288C64.2297 25.6016 64.044 26.0575 63.8076 26.4796C63.5712 26.9017 63.2841 27.2732 62.9465 27.6109C62.6088 27.9317 62.2035 28.2019 61.7476 28.3876C61.2917 28.5902 60.7683 28.6746 60.1605 28.6746H58.8435V26.3445H59.4513C60.0254 26.3445 60.4982 26.2263 60.8865 25.9731C61.2749 25.7198 61.5619 25.2639 61.7645 24.6054L62.0516 23.7442H60.9878L57.442 14.0354V14.0523Z" fill="white"/>
<path d="M40 26.3625H46.7201C47.5644 26.3625 48.3242 26.4807 48.9827 26.7002C49.6412 26.9198 50.1984 27.2575 50.6374 27.6627C51.0933 28.0679 51.431 28.5745 51.6674 29.1486C51.9038 29.7227 52.0051 30.3474 52.0051 31.0397C52.0051 31.732 51.8869 32.3905 51.6674 32.9814C51.431 33.5724 51.0933 34.079 50.6374 34.518C50.1815 34.957 49.6243 35.2778 48.9827 35.5142C48.3411 35.7506 47.5813 35.8857 46.7201 35.8857H43.1406V41.5759H40V26.3625ZM43.1406 28.8109V33.4373H46.298C47.1254 33.4373 47.7501 33.2178 48.1553 32.7957C48.5775 32.3736 48.7801 31.7995 48.7801 31.1072C48.7801 30.4149 48.5775 29.8408 48.1553 29.4356C47.7332 29.0304 47.1085 28.8109 46.298 28.8109H43.1406Z" fill="white"/>
<path d="M27 10V17H14V10H27Z" fill="white"/>
<path d="M27 22V29H1V22H27Z" fill="white"/>
<path d="M27 34V41H14V34H27Z" fill="white"/>
<path d="M57.442 38.9579C57.442 38.0461 57.7121 37.3539 58.2356 36.8642C58.7759 36.3745 59.6032 36.0537 60.7514 35.9186L62.71 35.6316C63.2166 35.5641 63.5374 35.4796 63.7062 35.3952C63.8751 35.3108 63.9426 35.1082 63.9426 34.8211C63.9426 34.4665 63.8244 34.1626 63.5711 33.8756C63.3179 33.6054 62.9126 33.4534 62.3386 33.4534C61.7645 33.4534 61.3424 33.5885 61.0553 33.8418C60.7683 34.0951 60.6163 34.4497 60.5657 34.9224H57.7459C57.7797 34.3315 57.9316 33.808 58.1849 33.369C58.4382 32.93 58.759 32.5754 59.1642 32.2884C59.5695 32.0013 60.0422 31.7987 60.5825 31.6468C61.1229 31.5117 61.6969 31.4272 62.3217 31.4272C65.3947 31.4272 66.9481 32.643 66.9481 35.0744V41.5582H64.0777V40.1061H63.9933C63.5543 41.1867 62.4736 41.7271 60.7514 41.7271C59.6201 41.7271 58.7759 41.4738 58.2356 40.9841C57.6952 40.4776 57.4082 39.8022 57.4082 38.9579H57.442ZM63.9595 36.7967C63.7738 37.0499 63.4529 37.2019 63.0308 37.2694L61.68 37.4889C61.241 37.5565 60.9033 37.6916 60.7007 37.8773C60.4981 38.063 60.3968 38.3163 60.3968 38.6202C60.3968 38.9917 60.515 39.2619 60.7345 39.4476C60.9709 39.6333 61.2748 39.7178 61.68 39.7178C62.2879 39.7178 62.8113 39.5489 63.2672 39.1943C63.7231 38.8397 63.9426 38.3163 63.9426 37.5903V36.7967H63.9595Z" fill="white"/>
<path d="M69.6834 33.8744H67.826V31.6793H69.6834V28.6738H72.7057V31.6793H75.0696V33.8744H72.7057V38.0619C72.7057 38.4502 72.7902 38.7373 72.9759 38.923C73.1448 39.1087 73.4824 39.1931 73.9721 39.1931H75.0865V41.557H73.6006C72.8915 41.557 72.2836 41.4895 71.7771 41.3713C71.2705 41.2531 70.8653 41.0505 70.5614 40.7803C70.2575 40.5102 70.0211 40.1556 69.886 39.7166C69.7509 39.2776 69.6834 38.7373 69.6834 38.1125V33.8575V33.8744Z" fill="white"/>
<path d="M77.9569 33.8755H76.0996V31.6805H77.9569V30.4985C77.9569 29.8738 78.0245 29.3335 78.1764 28.8607C78.3284 28.3879 78.5648 27.9996 78.9025 27.6788C79.2402 27.3579 79.6792 27.1215 80.2195 26.9527C80.7598 26.7838 81.4183 26.7163 82.2119 26.7163H83.512V28.9789H82.4652C81.9249 28.9789 81.5365 29.0971 81.317 29.3335C81.0975 29.5699 80.9793 29.9751 80.9793 30.5661V31.6636H83.1912V33.8586H80.9793V41.5582H77.9569V33.8586V33.8755Z" fill="white"/>
<path d="M83.6978 36.6278C83.6978 35.8004 83.8328 35.0744 84.103 34.4327C84.3731 33.7911 84.7446 33.2508 85.2343 32.7949C85.7239 32.3559 86.298 32.0182 86.9565 31.7818C87.615 31.5454 88.3411 31.4441 89.1178 31.4441C89.8945 31.4441 90.6712 31.5623 91.3297 31.7818C91.9882 32.0182 92.5623 32.339 93.035 32.778C93.5078 33.217 93.8793 33.7573 94.1325 34.4158C94.4027 35.0575 94.5209 35.8004 94.5209 36.6278C94.5209 37.4551 94.3858 38.1812 94.1157 38.8228C93.8455 39.4644 93.474 40.0048 92.9844 40.4607C92.5116 40.8997 91.9375 41.2374 91.279 41.4737C90.6205 41.7101 89.8945 41.8114 89.1178 41.8114C88.3411 41.8114 87.5644 41.6932 86.9059 41.4737C86.2474 41.2374 85.6733 40.9165 85.2005 40.4775C84.7277 40.0385 84.3563 39.4982 84.0861 38.8566C83.8159 38.215 83.6978 37.472 83.6978 36.6447V36.6278ZM86.8046 36.6278C86.8046 37.5564 87.0072 38.2825 87.4293 38.8228C87.8345 39.3462 88.4086 39.6164 89.1347 39.6164C89.8607 39.6164 90.4348 39.3462 90.84 38.8228C91.2452 38.2994 91.4647 37.5733 91.4647 36.6278C91.4647 35.6822 91.2621 34.9562 90.84 34.4327C90.4348 33.9262 89.8607 33.656 89.1347 33.656C88.4086 33.656 87.8345 33.9093 87.4293 34.4327C87.0241 34.9562 86.8046 35.6822 86.8046 36.6109V36.6278Z" fill="white"/>
<path d="M95.7704 31.6805H98.6408V33.1157H98.7253C98.9616 32.6092 99.2993 32.1871 99.7215 31.8831C100.144 31.5792 100.667 31.4272 101.326 31.4272C101.528 31.4272 101.748 31.4441 101.967 31.4948C102.204 31.5454 102.44 31.6468 102.693 31.8325L102.17 34.399C101.748 34.1795 101.342 34.0782 100.954 34.0782C100.211 34.0782 99.6539 34.3483 99.2993 34.9055C98.9448 35.4627 98.759 36.155 98.759 36.9993V41.5582H95.7535V31.6636L95.7704 31.6805Z" fill="white"/>
<path d="M103.706 31.6805H106.577V33.082H106.661C106.948 32.5417 107.336 32.1364 107.86 31.8494C108.383 31.5623 108.974 31.4272 109.666 31.4272C110.393 31.4272 111.051 31.5792 111.625 31.8663C112.199 32.1533 112.638 32.643 112.959 33.3352C113.33 32.6092 113.82 32.1026 114.428 31.8325C115.036 31.5623 115.661 31.4272 116.302 31.4272C116.809 31.4272 117.282 31.4948 117.737 31.6468C118.193 31.7987 118.582 32.0182 118.919 32.339C119.257 32.6598 119.51 33.082 119.713 33.6054C119.916 34.1288 120 34.7705 120 35.5134V41.5582H116.978V35.8004C116.978 35.0069 116.826 34.4497 116.539 34.1457C116.235 33.8418 115.846 33.6898 115.34 33.6898C114.766 33.6898 114.293 33.9093 113.921 34.3315C113.55 34.7705 113.347 35.4121 113.347 36.2563V41.5413H110.342V35.7836C110.342 34.99 110.19 34.4328 109.886 34.1288C109.582 33.8249 109.194 33.6729 108.704 33.6729C108.13 33.6729 107.657 33.8924 107.286 34.3146C106.914 34.7536 106.712 35.3952 106.712 36.2395V41.5244H103.706V31.6299V31.6805Z" fill="white"/>
<path d="M53.3052 26.3625H56.3107V41.5759H53.3052V26.3625Z" fill="white"/>
</svg>
