<svg width="320" height="280" viewBox="0 0 320 280" fill="none" xmlns="http://www.w3.org/2000/svg">
<rect width="320" height="280" fill="white"/>
<path d="M66.4871 177.549V147.656" stroke="#0A162C" stroke-width="1.5" stroke-linecap="round" stroke-linejoin="round"/>
<path d="M303.154 256.401L301.7 269.461H170.371L170.447 268.78L171.036 263.272L171.761 256.524C171.948 254.786 172.302 253.102 172.806 251.488C176.164 240.701 186.216 233.037 197.903 233.037H282.246C294.786 233.037 304.543 243.936 303.154 256.401Z" fill="#36B554" stroke="#0A162C" stroke-width="1.5" stroke-linecap="round" stroke-linejoin="round"/>
<path d="M183.518 269.461L183.593 268.78L184.183 263.272L184.907 256.524C185.175 254.046 185.781 251.681 186.671 249.471C190.598 239.757 200.107 233.037 211.055 233.037" stroke="#0A162C" stroke-width="1.5" stroke-linecap="round" stroke-linejoin="round"/>
<path d="M312.755 269.461H8" stroke="#0A162C" stroke-width="1.5" stroke-linecap="round" stroke-linejoin="round"/>
<path d="M212.066 74.465C201.882 63.3259 192.428 72.4942 190.438 73.5242C187.603 74.9911 184.168 73.6741 180.959 73.485C179.546 73.4018 178.133 73.574 176.782 73.9614C171.602 75.4469 168.52 80.6467 169.24 85.987C169.689 89.3127 169.131 93.2605 164.965 95.4162C161.713 97.0991 153.351 102.565 155.447 111.916C156.095 114.811 157.649 117.434 159.782 119.495C162.35 121.975 166.949 127.332 167.208 134.076C167.381 138.575 163.749 142.148 161.392 146.039C158.866 150.209 158.151 155.367 159.455 160.018C160.759 164.67 164.065 168.754 168.414 171.086L177.091 174.432L197.073 163.17L204.81 150.726L196.999 150.772C196.802 150.78 196.604 150.792 196.405 150.792H193.12C190.392 150.792 187.812 149.479 186.262 147.233C181.186 139.874 184.306 131.356 183.559 122.469C183.17 117.832 177.697 107.935 179.668 102.743C181.3 98.4451 184.376 94.966 188.446 93.2004C191.009 92.0886 193.906 92.0153 196.564 92.8762L200.729 94.2253C202.385 94.7617 204.154 94.8533 205.857 94.4908L234.496 88.3934C237.966 73.5685 219.647 69.1655 212.066 74.465Z" fill="#36B554" stroke="#0A162C" stroke-width="1.5" stroke-linecap="round" stroke-linejoin="round"/>
<path d="M178.989 133.031C180.632 140.736 183.262 150.792 193.121 150.792H196.406C196.605 150.792 196.802 150.78 196.999 150.772C196.999 150.772 204.81 150.726 204.81 150.726L227.984 151.036V136.807L227.071 89.9744C227.071 89.9744 208.671 93.8917 208.671 93.8917L205.857 94.491C204.154 94.8536 202.386 94.7621 200.73 94.2256L196.564 92.8764C193.911 92.0172 191.02 92.0873 188.461 93.1942C184.384 94.9579 181.302 98.4403 179.669 102.743C177.943 107.289 178.125 111.024 178.229 116.841C178.305 121.041 170.906 124.22 171.46 126.953C172.171 130.461 176.864 130.622 178.587 130.87L178.989 133.031Z" fill="#FBC9B9" stroke="#0A162C" stroke-width="1.5" stroke-linecap="round" stroke-linejoin="round"/>
<path d="M235.817 161.118L265.709 172.029C274.414 175.206 279.941 183.789 279.232 193.029L275.006 248.109C273.468 259.935 263.394 268.783 251.469 268.783H111.419V248.777L145.539 241.306L155.455 191.399C155.509 191.073 155.57 190.749 155.637 190.427C157.262 182.629 162.871 176.254 170.248 173.25L196.854 162.418L199.54 150.656L233.308 151.102L235.817 161.118Z" fill="#0A162C" stroke="#0A162C" stroke-width="1.5" stroke-linecap="round" stroke-linejoin="round"/>
<path d="M174.071 247.67L170.588 241.712C167.402 236.263 166.209 229.087 167.327 222.106L176.692 203.48" stroke="white" stroke-width="1.5" stroke-linecap="round" stroke-linejoin="round"/>
<path d="M212.456 115.875L214.849 113.58C216.414 112.128 221.718 110.802 223.566 115.524C224.191 117.121 224.187 118.933 223.804 120.641C222.907 124.645 219.888 128.191 216.05 129.748" stroke="#0A162C" stroke-width="1.5" stroke-linecap="round" stroke-linejoin="round"/>
<path d="M168.034 252.185L239.257 241.82C241.561 241.485 243.311 239.576 243.446 237.251L245.405 203.48" stroke="white" stroke-width="1.5" stroke-linecap="round" stroke-linejoin="round"/>
<path d="M168.034 252.185L152.572 249.696C150.688 249.393 148.759 249.541 146.943 250.128L132.568 254.912L134.659 263.273H168.034L168.034 252.185Z" fill="#FBC9B9" stroke="#0A162C" stroke-width="1.5" stroke-linecap="round" stroke-linejoin="round"/>
<path d="M195.485 108.844C195.485 108.844 189.923 107.447 183.14 109.306L182.59 106.715C182.59 106.715 190.521 104.761 195.485 108.844Z" fill="#0A162C" stroke="#0A162C" stroke-width="1.5" stroke-linecap="round" stroke-linejoin="round"/>
<path d="M193.12 150.792H196.405C201.589 150.792 206.362 147.971 208.862 143.429L211.338 138.928" stroke="#0A162C" stroke-width="1.5" stroke-linecap="round" stroke-linejoin="round"/>
<path d="M234.496 88.3933L208.671 93.8915C206.907 94.267 206.595 96.6498 208.204 97.4658C209.626 98.1873 211.116 98.9701 212.32 99.6634C214.664 101.012 215.817 103.762 215.161 106.386L213.364 112.687C213.113 113.567 214.188 114.214 214.848 113.58C216.413 112.128 221.717 110.802 223.566 115.525C224.191 117.121 224.187 118.933 223.804 120.641C223.223 123.235 221.751 125.637 219.743 127.43C218.24 128.773 218.494 131.195 220.229 132.221L227.984 136.807C227.984 136.807 231.402 131.05 234.929 125.504C249.238 103.001 234.496 88.3933 234.496 88.3933Z" fill="#36B554" stroke="#0A162C" stroke-width="1.5" stroke-linecap="round" stroke-linejoin="round"/>
<path d="M134.659 263.273H209.67C209.67 266.69 206.9 269.459 203.484 269.459H134.659V263.273Z" fill="white" stroke="#0A162C" stroke-width="1.5" stroke-linecap="round" stroke-linejoin="round"/>
<path d="M32.2466 259.641L15.0747 190.953C14.7329 189.586 15.7669 188.261 17.1761 188.261H112.162C114.362 188.261 116.28 189.759 116.814 191.894L134.659 263.273H36.899C34.6985 263.273 32.7803 261.775 32.2466 259.641Z" fill="#EEF0F3" stroke="#0A162C" stroke-width="1.5" stroke-linecap="round" stroke-linejoin="round"/>
<path d="M134.659 263.273H40.8007V269.459H134.659V263.273Z" fill="#EEF0F3" stroke="#0A162C" stroke-width="1.5" stroke-linecap="round" stroke-linejoin="round"/>
<path d="M107.874 188.261C110.074 188.261 111.992 189.759 112.526 191.894L130.371 263.273" stroke="#0A162C" stroke-width="1.5" stroke-linecap="round" stroke-linejoin="round"/>
<path d="M75.1664 230.802C77.102 228.688 76.6276 225.104 74.1069 222.795C71.5862 220.487 67.9736 220.329 66.038 222.443C64.1024 224.557 64.5768 228.142 67.0975 230.45C69.6183 232.758 73.2308 232.916 75.1664 230.802Z" fill="white" stroke="#0A162C" stroke-width="1.5" stroke-linecap="round" stroke-linejoin="round"/>
<path d="M174.197 88.3492C173.947 86.5452 174.797 84.6729 176.214 83.5286C177.63 82.3843 179.546 81.9417 181.354 82.161C183.162 82.3802 184.86 83.2234 186.263 84.3849C188.508 86.2437 190.01 88.8625 192.191 90.7954C194.121 92.5055 196.536 93.6224 199.051 94.1901C201.566 94.7578 204.145 94.9715 208.671 93.8916L234.496 88.3935C234.496 88.3935 236.138 82.9254 233.273 78.7974" fill="#36B554"/>
<path d="M174.197 88.3492C173.947 86.5452 174.797 84.6729 176.214 83.5286C177.63 82.3843 179.546 81.9417 181.354 82.161C183.162 82.3802 184.86 83.2234 186.263 84.3849C188.508 86.2437 190.01 88.8625 192.191 90.7954C194.121 92.5055 196.536 93.6224 199.051 94.1901C201.566 94.7578 204.145 94.9715 208.671 93.8916L234.496 88.3935C234.496 88.3935 236.138 82.9254 233.273 78.7974" stroke="#0A162C" stroke-width="1.5" stroke-linecap="round" stroke-linejoin="round"/>
<path d="M227.984 81.623C229.655 83.7944 230.236 86.7639 229.507 89.4049" stroke="#0A162C" stroke-width="1.5" stroke-linecap="round" stroke-linejoin="round"/>
<path d="M222.022 82.9094C223.693 85.0808 224.274 88.0503 223.545 90.6913" stroke="#0A162C" stroke-width="1.5" stroke-linecap="round" stroke-linejoin="round"/>
<path d="M216.06 84.196C217.731 86.3674 218.312 89.3369 217.583 91.9779" stroke="#0A162C" stroke-width="1.5" stroke-linecap="round" stroke-linejoin="round"/>
<path d="M210.098 85.4827C211.768 87.6541 212.349 90.6236 211.62 93.2646" stroke="#0A162C" stroke-width="1.5" stroke-linecap="round" stroke-linejoin="round"/>
<path d="M193.754 117.644C193.996 117.226 194.156 116.77 194.199 116.288C193.853 115.444 193.265 114.671 192.629 114.086C192.091 113.59 191.422 113.243 190.763 112.935C190.22 112.68 189.655 112.456 189.069 112.325C188.682 112.366 188.316 112.456 187.966 112.57C187.947 112.589 187.939 112.614 187.917 112.63C186.89 113.346 186.461 114.663 186.403 115.868C186.375 116.451 186.391 117.089 186.606 117.644H193.754Z" fill="white" stroke="white" stroke-width="1.5" stroke-linecap="round" stroke-linejoin="round"/>
<path d="M194.638 116.264C193.749 113.06 189.147 111.203 185.199 112.852" stroke="#0A162C" stroke-width="1.5" stroke-linecap="round" stroke-linejoin="round"/>
<path d="M188.376 117.7C188.945 117.297 189.403 116.33 189.403 115.397C189.403 113.834 188.639 112.6 187.416 112.6C186.521 112.6 185.795 113.867 185.795 115.43C185.795 116.363 186.057 117.184 186.456 117.7L188.376 117.7Z" fill="#0A162C" stroke="#0A162C" stroke-width="1.5" stroke-linecap="round" stroke-linejoin="round"/>
<path d="M215.708 148.497C219.924 148.497 223.342 145.079 223.342 140.863C223.342 136.647 219.924 133.229 215.708 133.229C211.491 133.229 208.073 136.647 208.073 140.863C208.073 145.079 211.491 148.497 215.708 148.497Z" fill="#8ECEA4" stroke="#0A162C" stroke-width="1.5" stroke-linecap="round" stroke-linejoin="round"/>
<path d="M215.708 127.565V133.229" stroke="#0A162C" stroke-width="1.5" stroke-linecap="round" stroke-linejoin="round"/>
<path d="M185.199 136.807C188.087 136.38 191.153 135.818 193.121 138.077" stroke="#0A162C" stroke-width="1.5" stroke-linecap="round" stroke-linejoin="round"/>
<path d="M214.6 123.501C214.24 121.886 214.812 120.165 215.813 118.848C216.814 117.53 218.206 116.564 219.64 115.738" stroke="#0A162C" stroke-width="1.5" stroke-linecap="round" stroke-linejoin="round"/>
<path d="M194.638 116.264C196.389 116.223 198.084 115.19 198.925 113.653" stroke="#0A162C" stroke-width="1.5" stroke-linecap="round" stroke-linejoin="round"/>
<path d="M67.6515 146.62C84.22 146.62 97.6515 133.188 97.6515 116.62C97.6515 100.051 84.22 86.6196 67.6515 86.6196C51.0829 86.6196 37.6515 100.051 37.6515 116.62C37.6515 133.188 51.0829 146.62 67.6515 146.62Z" fill="#0A162C" stroke="#0A162C" stroke-width="1.5" stroke-linecap="round" stroke-linejoin="round"/>
<path d="M61.0854 126.186L74.2175 113.054" stroke="white" stroke-width="1.5" stroke-linecap="round" stroke-linejoin="round"/>
<path d="M61.0854 113.054L74.2175 126.186" stroke="white" stroke-width="1.5" stroke-linecap="round" stroke-linejoin="round"/>
</svg>
