<svg width="320" height="280" viewBox="0 0 320 280" fill="none" xmlns="http://www.w3.org/2000/svg">
<rect width="320" height="280" fill="white"/>
<path d="M20.2967 247.764C20.2967 247.764 16.8539 270.15 44.9333 270.15H179.955C179.955 270.15 117.467 234.765 92.5318 232.599C67.5967 230.433 20.2967 247.764 20.2967 247.764Z" fill="#0A162C" stroke="#0A162C" stroke-width="1.5" stroke-linecap="round" stroke-linejoin="round"/>
<path d="M279.383 168.473H149.698V173.034H279.383V168.473Z" fill="white" stroke="#0A162C" stroke-width="1.5" stroke-linecap="round" stroke-linejoin="round"/>
<path d="M149.496 168.473V197.061H154.057V168.473H149.496Z" fill="white" stroke="#0A162C" stroke-width="1.5" stroke-linecap="round" stroke-linejoin="round"/>
<path d="M274.822 168.473V197.061H279.383V168.473H274.822Z" fill="white" stroke="#0A162C" stroke-width="1.5" stroke-linecap="round" stroke-linejoin="round"/>
<path d="M279.384 168.473V197.061H294.628V168.473H279.384Z" fill="#EEF0F3" stroke="#0A162C" stroke-width="1.5" stroke-linecap="round" stroke-linejoin="round"/>
<path d="M158.068 173.034H154.056V197.061H158.068V173.034Z" fill="#0A162C" stroke="#0A162C" stroke-width="1.5" stroke-linecap="round" stroke-linejoin="round"/>
<path d="M274.592 173.034H270.58V197.061H274.592V173.034Z" fill="#0A162C" stroke="#0A162C" stroke-width="1.5" stroke-linecap="round" stroke-linejoin="round"/>
<path d="M271.157 173.034H157.427V197.061H271.157V173.034Z" fill="white" stroke="#0A162C" stroke-width="1.5" stroke-linecap="round" stroke-linejoin="round"/>
<path d="M176.807 168.473H237.993C238.555 168.473 239.089 168.226 239.452 167.797C239.816 167.368 239.972 166.801 239.879 166.246L232.336 120.985H197.866L205.143 164.649H176.807C175.751 164.649 174.895 165.505 174.895 166.561C174.895 167.617 175.751 168.473 176.807 168.473Z" fill="#EEF0F3" stroke="#0A162C" stroke-width="1.5" stroke-linecap="round" stroke-linejoin="round"/>
<path d="M207.4 168.473H237.993C238.555 168.473 239.089 168.226 239.452 167.797C239.816 167.368 239.972 166.801 239.879 166.246L232.336 120.985H228.459L235.736 164.649H207.4C206.344 164.649 205.488 165.505 205.488 166.561C205.488 167.617 206.344 168.473 207.4 168.473Z" fill="#EEF0F3" stroke="#0A162C" stroke-width="1.5" stroke-linecap="round" stroke-linejoin="round"/>
<path d="M205.143 164.649H235.736" stroke="#0A162C" stroke-width="1.5" stroke-linecap="round" stroke-linejoin="round"/>
<path d="M237.758 153.375H203.287L202.013 145.727H236.483L237.758 153.375Z" fill="#0A162C" stroke="#0A162C" stroke-width="1.5" stroke-linecap="round" stroke-linejoin="round"/>
<path d="M274.155 146.128H159.43C155.206 146.128 152.386 142.703 153.131 138.479L166.617 61.9962C167.361 57.7721 171.39 54.3479 175.614 54.3479H290.339C294.563 54.3479 297.383 57.7722 296.638 61.9962L283.152 138.479C282.407 142.704 278.379 146.128 274.155 146.128Z" fill="#EEF0F3" stroke="#0A162C" stroke-width="1.5" stroke-linecap="round" stroke-linejoin="round"/>
<path d="M270.331 146.128H155.606C151.382 146.128 148.561 142.703 149.306 138.479L162.792 61.9962C163.537 57.7721 167.565 54.3479 171.789 54.3479H286.514C290.738 54.3479 293.559 57.7722 292.814 61.9962L279.328 138.479C278.583 142.704 274.555 146.128 270.331 146.128Z" fill="#0A162C" stroke="#0A162C" stroke-width="1.5" stroke-linecap="round" stroke-linejoin="round"/>
<path d="M271.005 142.304C273.114 142.304 275.132 140.588 275.504 138.479L288.99 61.9961C289.362 59.8876 287.949 58.1719 285.84 58.1719H171.115C169.006 58.1719 166.988 59.8875 166.617 61.9961L153.13 138.479C152.759 140.588 154.172 142.304 156.28 142.304H271.005Z" fill="#EEF0F3" stroke="#0A162C" stroke-width="1.5" stroke-linecap="round" stroke-linejoin="round"/>
<path d="M235.966 146.3H202.643" stroke="#EEF0F3" stroke-width="1.5" stroke-linecap="round" stroke-linejoin="round"/>
<path d="M233.881 153.375L232.702 146.3" stroke="#EEF0F3" stroke-width="1.5" stroke-linecap="round" stroke-linejoin="round"/>
<path d="M197.091 187.811C197.091 187.811 199.773 184.588 202.41 182.028C205.048 179.516 206.702 181.697 206.702 181.697L218.547 192.693L212.915 196.912H194.096" fill="#CE7A5D"/>
<path d="M197.091 187.811C197.091 187.811 199.773 184.588 202.41 182.028C205.048 179.516 206.702 181.697 206.702 181.697L218.547 192.693L212.915 196.912H194.096" stroke="#09162E" stroke-width="1.5" stroke-linecap="round" stroke-linejoin="round"/>
<path d="M204.243 184.161C204.243 184.161 206.165 182.36 208.356 180.512C210.546 178.663 212.2 180.654 212.2 180.654L218.548 187.811L213.362 194.115" fill="#CE7A5D"/>
<path d="M204.243 184.161C204.243 184.161 206.165 182.36 208.356 180.512C210.546 178.663 212.2 180.654 212.2 180.654L218.548 187.811L213.362 194.115" stroke="#09162E" stroke-width="1.5" stroke-linecap="round" stroke-linejoin="round"/>
<path d="M215.106 185.441L221.498 195.348C221.498 196.201 220.827 196.912 220.023 196.912H218.905C218.503 196.912 218.145 196.77 217.877 196.485L210.591 188.949" fill="#0A162C"/>
<path d="M216.114 185.441L222.506 195.348C222.506 196.201 221.835 196.912 221.031 196.912H219.913C219.511 196.912 219.153 196.77 218.885 196.485L211.599 188.949" fill="#0A162C"/>
<path d="M209.697 194.732L221.006 190.845L217.832 182.313C217.832 182.313 215.687 178.521 212.2 180.654C208.713 182.787 207.953 184.161 207.953 184.161" fill="#CE7A5D"/>
<path d="M209.697 194.732L221.006 190.845L217.832 182.313C217.832 182.313 215.687 178.521 212.2 180.654C208.713 182.787 207.953 184.161 207.953 184.161" stroke="#09162E" stroke-width="1.5" stroke-linecap="round" stroke-linejoin="round"/>
<path d="M212.423 185.441C212.423 185.441 219.084 180.512 221.006 181.934C222.883 183.356 237.992 194.731 237.992 194.731C237.992 195.916 237.054 196.912 235.936 196.912H235.266C234.997 196.912 234.729 196.864 234.461 196.722L221.051 190.845L215.137 197.061H194.805" fill="#CE7A5D"/>
<path d="M212.423 185.441C212.423 185.441 219.084 180.512 221.006 181.934C222.883 183.356 237.992 194.731 237.992 194.731C237.992 195.916 237.054 196.912 235.936 196.912H235.266C234.997 196.912 234.729 196.864 234.461 196.722L221.051 190.845L215.137 197.061H194.805" stroke="#09162E" stroke-width="1.5" stroke-linecap="round" stroke-linejoin="round"/>
<path d="M91.1373 134.765C91.1373 134.765 89.0127 123.328 93.4483 112.236C97.8839 101.144 73.5997 104.932 73.5997 104.932L67.1366 126.568L91.1373 134.765Z" fill="#CE7A5D" stroke="#09162E" stroke-width="1.5" stroke-linecap="round" stroke-linejoin="round"/>
<path d="M92.7008 114.167C92.7008 114.167 113.328 122.374 111.706 86.6222L110.045 74.3469L98.8571 70.6645C87.6305 66.9765 75.9012 74.8139 75.0021 86.6013L73.5997 104.932C74.4868 106.848 76.5181 110.939 76.5181 110.939" fill="#CE7A5D"/>
<path d="M92.7008 114.167C92.7008 114.167 113.328 122.374 111.706 86.6222L110.045 74.3469L98.8571 70.6645C87.6305 66.9765 75.9012 74.8139 75.0021 86.6013L73.5997 104.932C74.4868 106.848 76.5181 110.939 76.5181 110.939" stroke="#09162E" stroke-width="1.5" stroke-linecap="round" stroke-linejoin="round"/>
<path d="M62.2374 67.8696C64.9991 63.0424 76.761 57.5838 81.5542 56.6152C96.6225 53.5543 105.413 55.3346 108.979 61.2001C113.064 67.1778 120.477 74.0244 120.477 74.0244L105.259 84.2407C105.259 84.2358 102.954 80.6889 102.954 80.6841C103.061 81.9672 101.591 87.6536 101.113 90.9986C101.136 91.2139 98.7352 90.2858 98.7643 90.5003C99.284 94.3379 100.579 98.582 98.5761 101.847C97.9479 102.87 90.6592 113.71 86.2618 112.93L71.3715 112.391C71.3715 112.391 56.7438 106.667 56.514 92.1262C56.3931 84.476 57.3193 76.466 62.2374 67.8696Z" fill="#0A162C" stroke="#0A162C" stroke-width="1.5" stroke-linecap="round" stroke-linejoin="round"/>
<path d="M88.8742 53.7005C88.943 56.0758 89.3942 58.6109 89.2138 61.0447C92.1285 58.128 93.831 54.0075 94.5842 49.8618C95.3374 45.7161 95.2539 41.569 95.1622 37.4416C95.1612 36.9068 95.1336 36.3377 94.867 35.901C94.53 35.3883 93.9398 35.188 93.3596 35.0616C90.5189 34.4314 87.4121 34.8283 84.6069 36.1644C85.4167 39.4536 86.8 42.4947 87.7812 45.7161C88.6057 48.3841 88.8144 50.8643 88.8742 53.7005Z" fill="#0A162C" stroke="#0A162C" stroke-width="1.5" stroke-linecap="round" stroke-linejoin="round"/>
<path d="M14 248.777C28.6012 155.511 40.1554 142.303 56.0513 130.053C68.2875 120.622 79.1857 123.279 90.4093 131.95C99.6369 139.084 120.28 147.77 100.942 177.94C100.942 177.94 101.781 183.251 102.24 191.398C102.927 204.029 91.9145 220.823 92.4708 224.75C94.028 229.475 103.894 233.665 103.894 233.665C102.061 236.336 99.3397 239.142 96.0218 241.939C73.2721 261.118 40.9026 263.911 14.9688 249.322L14 248.777Z" fill="#36B554" stroke="#0A162C" stroke-width="1.5" stroke-linecap="round" stroke-linejoin="round"/>
<path d="M91.1373 134.765L93.4273 124.032C88.7186 120.334 67.3624 118.371 67.3624 118.371L64.5488 126.322" fill="#36B554"/>
<path d="M91.1373 134.765L93.4273 124.032C88.7186 120.334 67.3624 118.371 67.3624 118.371L64.5488 126.322" stroke="#0A162C" stroke-width="1.5" stroke-linecap="round" stroke-linejoin="round"/>
<path d="M89.4703 180.03C102.71 185.525 122.954 194.527 136.189 199.989C139.008 201.15 144.482 203.099 147.479 203.345C152.082 203.729 184.332 200.92 198.653 197.286C199.471 197.078 200.01 196.278 199.871 195.445C199.1 190.829 196.575 186.127 196.575 186.127C192.76 183.487 174.388 176.458 171.968 177.353C170.525 177.916 169.285 178.946 167.818 179.313C163.523 180.336 159.508 175.117 155.181 175.88C153.216 176.218 151.039 177.674 149.496 176.237C148.775 175.578 148.456 174.401 147.64 173.92C147.074 173.57 146.355 173.636 145.71 173.593C143.771 173.432 142.064 172.084 140.479 170.786C131.451 163.355 122.398 155.962 113.371 148.531C104.738 141.475 99.25 134.407 88.9308 131.61" fill="#36B554"/>
<path d="M89.4703 180.03C102.71 185.525 122.954 194.527 136.189 199.989C139.008 201.15 144.482 203.099 147.479 203.345C152.082 203.729 184.332 200.92 198.653 197.286C199.471 197.078 200.01 196.278 199.871 195.445C199.1 190.829 196.575 186.127 196.575 186.127C192.76 183.487 174.388 176.458 171.968 177.353C170.525 177.916 169.285 178.946 167.818 179.313C163.523 180.336 159.508 175.117 155.181 175.88C153.216 176.218 151.039 177.674 149.496 176.237C148.775 175.578 148.456 174.401 147.64 173.92C147.074 173.57 146.355 173.636 145.71 173.593C143.771 173.432 142.064 172.084 140.479 170.786C131.451 163.355 122.398 155.962 113.371 148.531C104.738 141.475 99.25 134.407 88.9308 131.61" stroke="#0A162C" stroke-width="1.5" stroke-linecap="round" stroke-linejoin="round"/>
<path d="M102.237 89.5196C102.315 86.6458 100.741 84.1318 98.7705 83.9822C98.3394 83.9495 97.8913 84.0194 97.4719 84.2614C96.8481 84.6213 96.3255 85.3426 95.9449 86.1584C94.7776 88.6606 94.3454 93.4486 95.3622 95.7451C96.379 98.0416 99.088 99.4071 100.909 100.278" fill="#CE7A5D"/>
<path d="M102.237 89.5196C102.315 86.6458 100.741 84.1318 98.7705 83.9822C98.3394 83.9495 97.8913 84.0194 97.4719 84.2614C96.8481 84.6213 96.3255 85.3426 95.9449 86.1584C94.7776 88.6606 94.3454 93.4486 95.3622 95.7451C96.379 98.0416 99.088 99.4071 100.909 100.278" stroke="#09162E" stroke-width="1.5" stroke-linecap="round" stroke-linejoin="round"/>
<path d="M84.4751 43.7753C80.422 37.9245 75.4209 33.1518 66.1372 33.003C56.5041 32.8487 50.4505 38.6183 47.1428 43.4164C44.538 47.1949 44.4738 52.3705 45.7245 56.7666C47.9665 64.6471 55.8586 69.3195 63.1166 71.957C68.9429 74.0743 82.0853 71.117 86.9863 65.4175C92.052 59.5264 87.8644 48.6679 84.4751 43.7753Z" fill="#0A162C" stroke="#0A162C" stroke-width="1.5" stroke-linecap="round" stroke-linejoin="round"/>
<path d="M99.2722 100.278C99.2722 100.278 99.0292 114.473 103.894 118.371C103.894 118.371 94.1056 118.689 92.6981 104.316C91.2906 89.9443 99.2722 100.278 99.2722 100.278Z" fill="#0A162C" stroke="#0A162C" stroke-width="1.5" stroke-linecap="round" stroke-linejoin="round"/>
<path d="M103.894 148.219C109.469 160.825 123.211 175.592 133.965 180.03C136.783 181.192 144.972 188.111 147.968 188.356C152.729 188.754 175.015 191.838 188.505 188.026L196.575 186.127C192.76 183.487 174.388 176.458 171.968 177.353C170.525 177.916 169.285 178.946 167.818 179.313C163.523 180.336 159.508 175.117 155.181 175.88C153.216 176.218 151.039 177.674 149.496 176.237C148.775 175.578 148.456 174.401 147.64 173.92C147.074 173.57 146.355 173.636 145.71 173.593C143.771 173.432 142.063 172.084 140.479 170.786C131.451 163.355 122.398 155.962 113.371 148.531C104.738 141.475 99.25 134.407 88.9308 131.61C88.9308 131.61 98.5154 136.058 103.894 148.219Z" fill="#8ECEA4"/>
<path d="M89.4703 180.03C102.71 185.525 122.954 194.527 136.189 199.989C139.008 201.15 144.482 203.099 147.479 203.345C152.052 203.727 183.912 200.956 198.37 197.357C199.37 197.108 200 196.127 199.813 195.114C198.981 190.606 196.575 186.127 196.575 186.127C192.76 183.487 174.388 176.458 171.968 177.353C170.525 177.916 169.285 178.946 167.818 179.313C163.523 180.336 159.508 175.117 155.181 175.88C153.216 176.218 151.039 177.674 149.496 176.237C148.775 175.578 148.456 174.401 147.64 173.92C147.074 173.57 146.355 173.636 145.71 173.593C143.771 173.432 142.064 172.084 140.479 170.786C131.451 163.355 122.398 155.962 113.371 148.531C104.738 141.475 99.25 134.407 88.9308 131.61" stroke="#0A162C" stroke-width="1.5" stroke-linecap="round" stroke-linejoin="round"/>
<path d="M102.259 191.398C98.2146 186.586 93.2911 182.587 87.7513 179.616L84.6263 177.94L101.809 185.255L102.259 191.398Z" fill="#0A162C" stroke="#0A162C" stroke-width="1.5" stroke-linecap="round" stroke-linejoin="round"/>
<path d="M294.628 197.061H306.035" stroke="#0A162C" stroke-width="1.5" stroke-linecap="round" stroke-linejoin="round"/>
<path d="M201.866 173.034H226.718C226.718 175.4 224.797 177.321 222.431 177.321H206.153C203.787 177.321 201.866 175.4 201.866 173.034Z" fill="#0A162C" stroke="#0A162C" stroke-width="1.5" stroke-linecap="round" stroke-linejoin="round"/>
<path d="M54.8717 54.7852C56.2218 57.3165 57.8615 59.7412 60.056 61.5891C62.2505 63.437 65.0543 64.6723 67.9217 64.5795" stroke="#EEF0F3" stroke-width="1.5" stroke-linecap="round" stroke-linejoin="round"/>
<path d="M57.3691 66.9258C60.8378 68.9521 65.1009 69.5735 69.0037 68.6216" stroke="#EEF0F3" stroke-width="1.5" stroke-linecap="round" stroke-linejoin="round"/>
<path d="M118.184 76.5839C115.478 74.8061 113.276 72.2701 111.896 69.3416" stroke="#EEF0F3" stroke-width="1.5" stroke-linecap="round" stroke-linejoin="round"/>
<path d="M202.896 114.462L216.375 103.003" stroke="#0A162C" stroke-width="5" stroke-linecap="round" stroke-linejoin="round"/>
<path d="M232.759 103.389C237.913 98.6691 238.883 91.3388 234.925 87.0166C230.967 82.6944 223.58 83.0169 218.426 87.737C213.271 92.4571 212.301 99.7873 216.259 104.11C220.217 108.432 227.604 108.109 232.759 103.389Z" fill="white" stroke="#0A162C" stroke-width="1.5" stroke-linecap="round" stroke-linejoin="round"/>
</svg>
